<svg width="50" height="50" viewBox="0 0 35 41" fill="none" xmlns="http://www.w3.org/2000/svg">
<path fill-rule="evenodd" clip-rule="evenodd" d="M13.8035 1.0037C13.1827 1.32095 12.8773 1.89639 12.812 2.54725C12.7838 2.8621 12.7416 3.17471 12.6841 3.48605C12.5621 4.14691 12.331 5.08076 11.8979 6.13682C11.034 8.24343 9.38197 10.8061 6.19375 12.7101C1.70075 15.3933 0.0341536 21.4224 0.746335 26.8196C1.47342 32.33 4.76662 38.0413 11.2823 40.1166C11.9315 40.3236 12.6471 40.1759 13.1492 39.7316C13.7636 39.188 13.7949 38.4676 13.6388 37.7403C13.5242 37.2066 13.2815 35.8702 13.2815 34.2738C13.2815 33.7573 13.3065 33.2273 13.3643 32.6959C14.3657 34.8893 15.7232 36.4889 17.0799 37.6328C19.0982 39.3346 21.0054 39.9532 21.5732 40.113C22.004 40.2343 22.4619 40.2419 22.8838 40.0804C27.8658 38.1763 31.0023 35.5919 32.7545 32.6375C34.5028 29.6895 34.749 26.5811 34.3578 23.8415C33.969 21.116 32.9417 18.6817 32.0385 16.9556C31.3554 15.6502 30.7254 14.7149 30.4363 14.3056C30.0817 13.8039 29.6197 13.4166 28.9618 13.3451C28.4375 13.2881 27.9123 13.4449 27.5152 13.777L24.5808 16.2306C24.8328 12.339 23.4002 9.06948 21.6219 6.6055C20.3306 4.81629 18.8572 3.44216 17.7161 2.51839C17.1429 2.05424 16.6458 1.69772 16.2862 1.45358C16.106 1.33139 15.9598 1.23694 15.8548 1.17084C15.233 0.779345 14.4873 0.654313 13.8035 1.0037ZM9.55771 35.2924C9.54112 34.967 9.53152 34.6262 9.53152 34.2738C9.53154 32.3876 9.80673 30.0068 10.8966 27.7939C11.2616 27.0529 11.718 26.3305 12.2862 25.652C12.7642 25.081 13.5573 24.8448 14.2901 25.0553C15.0228 25.2659 15.5484 25.8808 15.6176 26.6089C16.0417 31.0671 17.9175 33.5602 19.5609 34.9459C20.4007 35.6541 21.2109 36.0979 21.7978 36.3611C24.0628 36.6252 28.5345 32.4852 29.4918 30.8709C30.732 28.7799 30.9545 26.5132 30.6423 24.3258C30.2777 21.771 29.1823 19.4069 28.3108 17.8733L22.485 22.7444C21.819 23.3015 20.8359 23.3375 20.1272 22.831C19.4184 22.3243 19.1769 21.4132 19.5478 20.6453C22.0155 15.5363 20.6034 11.506 18.5349 8.63989C17.7137 7.50222 16.7895 6.55493 15.9628 5.82117C15.8126 6.32471 15.6247 6.87049 15.3894 7.44422C15.0553 8.25891 14.6244 9.13281 14.0698 10.0225C12.8278 12.0147 10.9656 14.086 8.1812 15.7488C5.45814 17.375 3.84365 21.6481 4.46688 26.3713C4.93674 29.9323 6.6298 33.2649 9.55771 35.2924Z" fill="#702848" stroke="black" stroke-width="0.00064"/>
</svg>
