

<svg width="50" height="50" viewBox="0 0 31 45" fill="none" xmlns="http://www.w3.org/2000/svg">
<path d="M7.50333 44.6846C7.17718 44.5469 6.90615 44.3046 6.733 43.9958C6.55985 43.687 6.49444 43.3294 6.54708 42.9793L9.44771 24.0933H1.7499C1.50585 24.0999 1.26356 24.0503 1.04172 23.9484C0.819877 23.8465 0.624413 23.695 0.470407 23.5056C0.316402 23.3161 0.207972 23.0939 0.153484 22.8559C0.0989959 22.6179 0.0999066 22.3706 0.156145 22.133L4.9374 1.41428C5.02153 1.05771 5.22594 0.741013 5.51621 0.517499C5.80649 0.293985 6.16492 0.177302 6.53114 0.187093H22.4686C22.7067 0.186283 22.942 0.238832 23.1571 0.340878C23.3722 0.442923 23.5618 0.591873 23.7118 0.77678C23.8639 0.963777 23.9716 1.18285 24.0268 1.41749C24.082 1.65214 24.0833 1.89626 24.0305 2.13147L21.2733 14.5308H28.8436C29.1423 14.5302 29.4352 14.6136 29.6888 14.7714C29.9424 14.9292 30.1466 15.1551 30.278 15.4233C30.3922 15.6808 30.4362 15.9639 30.4054 16.2439C30.3746 16.5238 30.2701 16.7906 30.1027 17.0171L9.38396 44.1108C9.24393 44.3184 9.05696 44.4901 8.83822 44.6119C8.61947 44.7337 8.37509 44.8023 8.1249 44.8121C7.91164 44.8081 7.70093 44.7649 7.50333 44.6846ZM17.289 17.7183L20.4765 3.37459H7.80615L3.75802 20.9058H13.1771L10.643 37.2896L25.6561 17.7183H17.289Z" fill="#702848"/>
</svg>

