<svg width="31" height="32" viewBox="0 0 31 32" fill="none" xmlns="http://www.w3.org/2000/svg">
    <path d="M25.6741 0H21.9532C21.5422 0 21.209 0.36271 21.209 0.810127V0.905575L26.4183 5.44228V0.810127C26.4183 0.36271 26.0852 0 25.6741 0Z" fill="#702848"/>
    <path fill-rule="evenodd" clip-rule="evenodd" d="M14.1387 10.5312C14.1387 9.41262 14.9717 8.50586 15.9991 8.50586C17.0267 8.50586 17.8596 9.41262 17.8596 10.5312C17.8596 11.6498 17.0267 12.5565 15.9991 12.5565C14.9717 12.5565 14.1387 11.6498 14.1387 10.5312Z" fill="#702848"/>
    <path fill-rule="evenodd" clip-rule="evenodd" d="M29.0232 12.8986L30.1864 13.9116C30.6678 14.3307 31.3702 14.2458 31.7554 13.7217C32.1404 13.1977 32.0625 12.4329 31.581 12.0136L19.4866 1.48085C17.4483 -0.294398 14.5518 -0.294398 12.5133 1.48085L0.418989 12.0136C-0.0624245 12.4329 -0.140475 13.1977 0.244656 13.7217C0.629771 14.2458 1.33224 14.3307 1.81365 13.9116L2.97678 12.8986V29.5702H1.11632C0.499807 29.5702 4.24417e-05 30.1143 4.24417e-05 30.7854C4.24417e-05 31.4565 0.499807 32.0006 1.11632 32.0006H30.8837C31.5001 32.0006 31.9999 31.4565 31.9999 30.7854C31.9999 30.1143 31.5001 29.5702 30.8837 29.5702H29.0232V12.8986ZM11.907 10.5322C11.907 8.07139 13.7394 6.0765 16 6.0765C18.2605 6.0765 20.093 8.07139 20.093 10.5322C20.093 12.993 18.2605 14.9879 16 14.9879C13.7394 14.9879 11.907 12.993 11.907 10.5322ZM16.0735 16.6081C17.0631 16.6081 17.9156 16.608 18.5985 16.708C19.3302 16.8151 20.0317 17.0566 20.6005 17.6759C21.1695 18.2953 21.3913 19.0588 21.4897 19.8555C21.5757 20.5522 21.5811 21.4116 21.5814 22.4038C21.5814 22.4701 21.5814 22.5368 21.5814 22.6041V29.5702H19.3488V22.6841C19.3488 21.5041 19.3464 20.7413 19.2771 20.1792C19.212 19.6521 19.1069 19.487 19.022 19.3945C18.937 19.302 18.7852 19.1876 18.301 19.1166C17.7847 19.0411 17.0839 19.0385 16 19.0385C14.916 19.0385 14.2153 19.0411 13.6991 19.1166C13.2149 19.1876 13.0631 19.302 12.9781 19.3945C12.8931 19.487 12.7881 19.6521 12.723 20.1792C12.6535 20.7413 12.6512 21.5041 12.6512 22.6841V29.5702H10.4186V22.6041C10.4186 21.5269 10.4185 20.5987 10.5103 19.8555C10.6087 19.0588 10.8305 18.2953 11.3995 17.6759C11.9684 17.0566 12.6698 16.8151 13.4016 16.708C14.0843 16.608 14.937 16.6081 15.9266 16.6081H16.0735Z" fill="#702848"/>
    <path fill-rule="evenodd" clip-rule="evenodd" d="M14.1387 10.5312C14.1387 9.41262 14.9717 8.50586 15.9991 8.50586C17.0267 8.50586 17.8596 9.41262 17.8596 10.5312C17.8596 11.6498 17.0267 12.5565 15.9991 12.5565C14.9717 12.5565 14.1387 11.6498 14.1387 10.5312Z" fill="#702848"/>
</svg>
